<svg width="25" height="25" viewBox="0 0 25 25" fill="none" xmlns="http://www.w3.org/2000/svg">
	<path d="M18.0365 1H7.97548C3.6053 1 1 3.604 1 7.972V18.016C1 22.396 3.6053 25 7.97548 25H18.0245C22.3947 25 25 22.396 25 18.028V7.972C25.012 3.604 22.4067 1 18.0365 1Z" fill="#6674FF"/>
	<path d="M11.5775 16.1675C11.3775 16.1675 11.1875 16.0875 11.0475 15.9475L8.2175 13.1175C7.9275 12.8275 7.9275 12.3475 8.2175 12.0575C8.5075 11.7675 8.9875 11.7675 9.2775 12.0575L11.5775 14.3575L16.7175 9.2175C17.0075 8.9275 17.4875 8.9275 17.7775 9.2175C18.0675 9.5075 18.0675 9.9875 17.7775 10.2775L12.1075 15.9475C11.9675 16.0875 11.7775 16.1675 11.5775 16.1675Z" fill="white"/>
</svg>
