<svg width="21" height="20" viewBox="0 0 21 20" fill="none" xmlns="http://www.w3.org/2000/svg">
<path d="M10.4998 18.3332C15.1022 18.3332 18.8332 14.6022 18.8332 9.99984C18.8332 5.39746 15.1022 1.6665 10.4998 1.6665C5.89746 1.6665 2.1665 5.39746 2.1665 9.99984C2.1665 14.6022 5.89746 18.3332 10.4998 18.3332Z" fill="#6C728B"/>
<path d="M13.5525 12.7673L13.5422 12.7603L13.5314 12.7539L10.9483 11.2124C10.9482 11.2124 10.9482 11.2123 10.9481 11.2123C10.4579 10.9193 10.0752 10.241 10.0752 9.67497V6.2583C10.0752 6.22815 10.0875 6.19687 10.1131 6.17123C10.1388 6.14559 10.17 6.1333 10.2002 6.1333C10.2303 6.1333 10.2616 6.14559 10.2873 6.17123C10.3129 6.19687 10.3252 6.22815 10.3252 6.2583V9.67497C10.3252 9.94333 10.4292 10.2156 10.5479 10.4242C10.6656 10.6313 10.8463 10.8608 11.0795 10.9973L13.6606 12.5377L13.6606 12.5377L13.6649 12.5402C13.7136 12.5686 13.7424 12.6375 13.7052 12.7082C13.6715 12.7576 13.6256 12.775 13.5919 12.775C13.5762 12.775 13.5671 12.7732 13.5628 12.772C13.5591 12.771 13.5563 12.7698 13.5525 12.7673Z" fill="#262542" stroke="white"/>
</svg>
