<svg width="24" height="24" viewBox="0 0 24 24" fill="none" xmlns="http://www.w3.org/2000/svg">
	<path d="M20.5 10.19L17.61 10.19C15.24 10.19 13.31 8.26 13.31 5.89V3C13.31 2.45 12.86 2 12.31 2L8.07 2C4.99 2 2.5 4 2.5 7.57L2.5 16.43C2.5 20 4.99 22 8.07 22L15.93 22C19.01 22 21.5 20 21.5 16.43L21.5 11.19C21.5 10.64 21.05 10.19 20.5 10.19Z" fill="white"/>
	<path d="M17.435 8.31002L17.435 8.30999H17.4297C16.1826 8.30999 15.1797 7.31077 15.1797 6.13999V2.64999C15.1797 2.61542 15.1892 2.59388 15.2009 2.57784C15.2145 2.55924 15.2373 2.54025 15.269 2.52778C15.3323 2.50287 15.3962 2.51366 15.4461 2.56355C16.4446 3.562 17.9435 5.07454 19.2557 6.39873C19.8876 7.03643 20.4763 7.63045 20.9449 8.10232L20.9461 8.10355C20.972 8.12937 20.9791 8.15048 20.9815 8.16561C20.9845 8.18366 20.9825 8.20721 20.9712 8.23266C20.9492 8.28243 20.9027 8.31999 20.8297 8.31999C19.6987 8.31999 18.3817 8.31999 17.435 8.31002ZM20.8297 8.81999C21.3997 8.81999 21.6997 8.14999 21.2997 7.74999C20.8319 7.27896 20.2438 6.68552 19.6122 6.04817C18.2995 4.72353 16.7989 3.20922 15.7997 2.20999C15.3897 1.79999 14.6797 2.07999 14.6797 2.64999V6.13999C14.6797 7.59999 15.9197 8.80999 17.4297 8.80999C18.3796 8.81999 19.6994 8.81999 20.8294 8.81999H20.8297Z" fill="#858DAD" stroke="#858DAD"/>
	<path d="M13.5 13.75L7.5 13.75C7.09 13.75 6.75 13.41 6.75 13C6.75 12.59 7.09 12.25 7.5 12.25L13.5 12.25C13.91 12.25 14.25 12.59 14.25 13C14.25 13.41 13.91 13.75 13.5 13.75Z" fill="#151834"/>
	<path d="M11.5 17.75H7.5C7.09 17.75 6.75 17.41 6.75 17C6.75 16.59 7.09 16.25 7.5 16.25H11.5C11.91 16.25 12.25 16.59 12.25 17C12.25 17.41 11.91 17.75 11.5 17.75Z" fill="#151834"/>
</svg>
