<svg width="155" height="93" viewBox="0 0 155 93" fill="none" xmlns="http://www.w3.org/2000/svg">
<path fill-rule="evenodd" clip-rule="evenodd" d="M148.503 13.8414C152.091 13.8414 155 16.7334 155 20.3008C155 23.8681 152.091 26.7601 148.503 26.7601H111.377C114.965 26.7601 117.874 29.652 117.874 33.2194C117.874 36.7868 114.965 39.6787 111.377 39.6787H131.796C135.385 39.6787 138.293 42.5707 138.293 46.1381C138.293 49.7055 135.385 52.5974 131.796 52.5974H122.354C117.829 52.5974 114.162 55.4893 114.162 59.0567C114.162 61.435 116.018 63.5881 119.731 65.5161C123.319 65.5161 126.228 68.408 126.228 71.9754C126.228 75.5428 123.319 78.4347 119.731 78.4347H42.6946C39.1064 78.4347 36.1976 75.5428 36.1976 71.9754C36.1976 68.408 39.1064 65.5161 42.6946 65.5161H6.49701C2.90881 65.5161 0 62.6241 0 59.0567C0 55.4893 2.90881 52.5974 6.49701 52.5974H43.6228C47.211 52.5974 50.1198 49.7055 50.1198 46.1381C50.1198 42.5707 47.211 39.6787 43.6228 39.6787H20.4192C16.831 39.6787 13.9222 36.7868 13.9222 33.2194C13.9222 29.652 16.831 26.7601 20.4192 26.7601H57.5449C53.9567 26.7601 51.0479 23.8681 51.0479 20.3008C51.0479 16.7334 53.9567 13.8414 57.5449 13.8414H148.503ZM148.503 39.6787C152.091 39.6787 155 42.5707 155 46.1381C155 49.7055 152.091 52.5974 148.503 52.5974C144.915 52.5974 142.006 49.7055 142.006 46.1381C142.006 42.5707 144.915 39.6787 148.503 39.6787Z" fill="#373B4B"/>
<mask id="path-2-outside-1_6227_6420" maskUnits="userSpaceOnUse" x="39.8795" y="13.9377" width="68.2603" height="77.735" fill="black">
<rect fill="white" x="39.8795" y="13.9377" width="68.2603" height="77.735"/>
<path fill-rule="evenodd" clip-rule="evenodd" d="M96.6565 16.8581L104.471 73.5929L105.174 79.2847C105.4 81.1183 104.107 82.7851 102.284 83.0076L53.6104 88.9493C51.7879 89.1718 50.1269 87.8657 49.9005 86.0321L42.355 24.9356C42.2196 23.8393 42.9987 22.8422 44.0951 22.7083L49.9737 21.9907"/>
</mask>
<path fill-rule="evenodd" clip-rule="evenodd" d="M96.6565 16.8581L104.471 73.5929L105.174 79.2847C105.4 81.1183 104.107 82.7851 102.284 83.0076L53.6104 88.9493C51.7879 89.1718 50.1269 87.8657 49.9005 86.0321L42.355 24.9356C42.2196 23.8393 42.9987 22.8422 44.0951 22.7083L49.9737 21.9907" fill="#222531"/>
<path d="M104.471 73.5929L106.456 73.3506L106.455 73.3367L106.453 73.3228L104.471 73.5929ZM94.6749 17.1282L102.489 73.863L106.453 73.3228L98.6381 16.588L94.6749 17.1282ZM102.486 73.8353L103.189 79.5271L107.159 79.0424L106.456 73.3506L102.486 73.8353ZM103.189 79.5271C103.281 80.2762 102.753 80.9355 102.039 81.0227L102.529 84.9925C105.46 84.6348 107.52 81.9605 107.159 79.0424L103.189 79.5271ZM102.039 81.0227L53.3653 86.9644L53.8556 90.9343L102.529 84.9925L102.039 81.0227ZM53.3653 86.9644C52.6509 87.0516 51.9783 86.5389 51.8857 85.7898L47.9152 86.2744C48.2756 89.1926 50.9249 91.292 53.8556 90.9343L53.3653 86.9644ZM51.8857 85.7898L44.3403 24.6932L40.3697 25.1779L47.9152 86.2744L51.8857 85.7898ZM44.3403 24.6932L50.2189 23.9756L49.7286 20.0058L43.85 20.7234L44.3403 24.6932ZM44.3403 24.6932L44.3403 24.6932L43.85 20.7234C41.6571 20.9911 40.099 22.9854 40.3697 25.1779L44.3403 24.6932Z" fill="#B4B9CC" mask="url(#path-2-outside-1_6227_6420)"/>
<path d="M56.6343 4C56.6343 2.48122 57.8655 1.25 59.3843 1.25H101.268C101.994 1.25 102.691 1.53731 103.206 2.04921L115.508 14.2723C116.028 14.7886 116.32 15.4907 116.32 16.2231V73.5119C116.32 75.0307 115.089 76.2619 113.57 76.2619H59.3843C57.8655 76.2619 56.6343 75.0307 56.6343 73.5119V4Z" fill="#222531" stroke="#B4B9CC" stroke-width="2.5"/>
<path d="M101.791 2.21725V12.9187C101.791 14.4476 103.038 15.687 104.575 15.687H111.939" stroke="#B4B9CC" stroke-width="2.5" stroke-linecap="round" stroke-linejoin="round"/>
<path d="M65.8984 62.7478H90.0302M65.8984 15.687H90.0302H65.8984ZM65.8984 26.7601H105.809H65.8984ZM65.8984 38.756H105.809H65.8984ZM65.8984 50.7519H105.809H65.8984Z" stroke="#B4B9CC" stroke-width="2.5" stroke-linecap="round" stroke-linejoin="round"/>
</svg>
