<svg width="155" height="93" viewBox="0 0 155 93" fill="none" xmlns="http://www.w3.org/2000/svg">
	<path fill-rule="evenodd" clip-rule="evenodd" d="M148.503 13.8413C152.091 13.8413 155 16.7332 155 20.3006C155 23.868 152.091 26.76 148.503 26.76H111.377C114.965 26.76 117.874 29.6519 117.874 33.2193C117.874 36.7867 114.965 39.6786 111.377 39.6786H131.796C135.385 39.6786 138.293 42.5706 138.293 46.1379C138.293 49.7053 135.385 52.5973 131.796 52.5973H122.354C117.829 52.5973 114.162 55.4892 114.162 59.0566C114.162 61.4349 116.018 63.588 119.731 65.5159C123.319 65.5159 126.228 68.4079 126.228 71.9753C126.228 75.5426 123.319 78.4346 119.731 78.4346H42.6946C39.1064 78.4346 36.1976 75.5426 36.1976 71.9753C36.1976 68.4079 39.1064 65.5159 42.6946 65.5159H6.49701C2.90881 65.5159 0 62.624 0 59.0566C0 55.4892 2.90881 52.5973 6.49701 52.5973H43.6228C47.211 52.5973 50.1198 49.7053 50.1198 46.1379C50.1198 42.5706 47.211 39.6786 43.6228 39.6786H20.4192C16.831 39.6786 13.9222 36.7867 13.9222 33.2193C13.9222 29.6519 16.831 26.76 20.4192 26.76H57.5449C53.9567 26.76 51.0479 23.868 51.0479 20.3006C51.0479 16.7332 53.9567 13.8413 57.5449 13.8413H148.503ZM148.503 39.6786C152.091 39.6786 155 42.5706 155 46.1379C155 49.7053 152.091 52.5973 148.503 52.5973C144.915 52.5973 142.006 49.7053 142.006 46.1379C142.006 42.5706 144.915 39.6786 148.503 39.6786Z" fill="#2B2F62"/>
	<mask id="path-2-outside-1_3663_162182" maskUnits="userSpaceOnUse" x="39.879" y="13.9377" width="68.2603" height="77.735" fill="black">
		<rect fill="white" x="39.879" y="13.9377" width="68.2603" height="77.735"/>
		<path fill-rule="evenodd" clip-rule="evenodd" d="M96.656 16.8582L104.471 73.593L105.174 79.2848C105.4 81.1184 104.106 82.7852 102.284 83.0077L53.6099 88.9494C51.7874 89.1719 50.1264 87.8658 49.9 86.0321L42.3545 24.9356C42.2191 23.8394 42.9982 22.8422 44.0946 22.7083L49.9733 21.9907"/>
	</mask>
	<path fill-rule="evenodd" clip-rule="evenodd" d="M96.656 16.8582L104.471 73.593L105.174 79.2848C105.4 81.1184 104.106 82.7852 102.284 83.0077L53.6099 88.9494C51.7874 89.1719 50.1264 87.8658 49.9 86.0321L42.3545 24.9356C42.2191 23.8394 42.9982 22.8422 44.0946 22.7083L49.9733 21.9907" fill="#21244D"/>
	<path d="M104.471 73.593L106.456 73.3506L106.454 73.3367L106.452 73.3229L104.471 73.593ZM94.6744 17.1283L102.489 73.8631L106.452 73.3229L98.6376 16.588L94.6744 17.1283ZM102.485 73.8353L103.188 79.5271L107.159 79.0424L106.456 73.3506L102.485 73.8353ZM103.188 79.5271C103.281 80.2762 102.753 80.9355 102.038 81.0227L102.529 84.9926C105.459 84.6348 107.519 81.9605 107.159 79.0424L103.188 79.5271ZM102.038 81.0227L53.3648 86.9645L53.8551 90.9343L102.529 84.9926L102.038 81.0227ZM53.3648 86.9645C52.6504 87.0517 51.9778 86.5389 51.8852 85.7898L47.9147 86.2745C48.2751 89.1926 50.9244 91.292 53.8551 90.9343L53.3648 86.9645ZM51.8852 85.7898L44.3398 24.6933L40.3693 25.178L47.9147 86.2745L51.8852 85.7898ZM44.3398 24.6933L50.2184 23.9756L49.7281 20.0058L43.8495 20.7234L44.3398 24.6933ZM44.3398 24.6933L44.3398 24.6933L43.8495 20.7234C41.6566 20.9911 40.0985 22.9855 40.3693 25.178L44.3398 24.6933Z" fill="#BAC1DB" mask="url(#path-2-outside-1_3663_162182)"/>
	<path d="M56.6348 4C56.6348 2.48122 57.866 1.25 59.3848 1.25H101.268C101.995 1.25 102.691 1.53731 103.207 2.04921L115.509 14.2723C116.028 14.7886 116.32 15.4907 116.32 16.2231V73.5119C116.32 75.0307 115.089 76.2619 113.57 76.2619H59.3848C57.866 76.2619 56.6348 75.0307 56.6348 73.5119V4Z" fill="#21244D" stroke="#BAC1DB" stroke-width="2.5"/>
	<path d="M101.791 2.21729V12.9187C101.791 14.4476 103.038 15.687 104.575 15.687H111.939" stroke="#BAC1DB" stroke-width="2.5" stroke-linecap="round" stroke-linejoin="round"/>
	<path d="M65.8984 62.7478H90.0302M65.8984 15.687H90.0302H65.8984ZM65.8984 26.7601H105.809H65.8984ZM65.8984 38.756H105.809H65.8984ZM65.8984 50.7519H105.809H65.8984Z" stroke="#BAC1DB" stroke-width="2.5" stroke-linecap="round" stroke-linejoin="round"/>
</svg>
