<svg width="20" height="20" viewBox="0 0 20 20" fill="none" xmlns="http://www.w3.org/2000/svg">
<path d="M15.8327 7.49999C15.8327 8.70832 15.4743 9.81667 14.8577 10.7417C13.9577 12.075 12.5327 13.0167 10.8743 13.2583C10.591 13.3083 10.2993 13.3333 9.99935 13.3333C9.69935 13.3333 9.40768 13.3083 9.12435 13.2583C7.46602 13.0167 6.04102 12.075 5.14102 10.7417C4.52435 9.81667 4.16602 8.70832 4.16602 7.49999C4.16602 4.27499 6.77435 1.66666 9.99935 1.66666C13.2243 1.66666 15.8327 4.27499 15.8327 7.49999Z" stroke="white" stroke-width="1.5" stroke-linecap="round" stroke-linejoin="round"/>
<path d="M17.7092 15.3917L16.3342 15.7167C16.0259 15.7917 15.7842 16.025 15.7175 16.3333L15.4259 17.5583C15.2675 18.225 14.4175 18.425 13.9759 17.9L10.0009 13.3333L6.02588 17.9083C5.58421 18.4333 4.73421 18.2333 4.57588 17.5667L4.28421 16.3417C4.20921 16.0333 3.96755 15.7917 3.66755 15.725L2.29255 15.4C1.65921 15.25 1.43421 14.4583 1.89255 14L5.14255 10.75C6.04255 12.0833 7.46755 13.025 9.12588 13.2667C9.40921 13.3167 9.70088 13.3417 10.0009 13.3417C10.3009 13.3417 10.5925 13.3167 10.8759 13.2667C12.5342 13.025 13.9592 12.0833 14.8592 10.75L18.1092 14C18.5675 14.45 18.3425 15.2417 17.7092 15.3917Z" stroke="white" stroke-width="1.5" stroke-linecap="round" stroke-linejoin="round"/>
<path d="M10.4836 4.98334L10.9753 5.96667C11.042 6.1 11.217 6.23334 11.3753 6.25834L12.267 6.40834C12.8336 6.5 12.967 6.91667 12.5586 7.32501L11.867 8.01666C11.7503 8.13333 11.6836 8.35834 11.7253 8.52501L11.9253 9.38334C12.0836 10.0583 11.7253 10.325 11.1253 9.96666L10.292 9.475C10.142 9.38333 9.89197 9.38333 9.74197 9.475L8.90864 9.96666C8.30864 10.3167 7.9503 10.0583 8.10864 9.38334L8.30864 8.52501C8.34197 8.36668 8.28364 8.13333 8.16697 8.01666L7.4753 7.32501C7.06697 6.91667 7.2003 6.50834 7.76697 6.40834L8.65864 6.25834C8.80864 6.23334 8.98364 6.1 9.0503 5.96667L9.54197 4.98334C9.78364 4.45001 10.217 4.45001 10.4836 4.98334Z" stroke="white" stroke-width="1.5" stroke-linecap="round" stroke-linejoin="round"/>
</svg>
