<svg width="28" height="28" viewBox="0 0 28 28" fill="none" xmlns="http://www.w3.org/2000/svg">
	<g clip-path="url(#clip0_3663_163222)">
		<path d="M14 28C21.732 28 28 21.732 28 14C28 6.26801 21.732 0 14 0C6.26801 0 0 6.26801 0 14C0 21.732 6.26801 28 14 28Z" fill="#FF0420"/>
		<path d="M9.91732 17.7184C9.08292 17.7184 8.39972 17.5224 7.86772 17.1304C7.34132 16.7328 7.07812 16.1616 7.07812 15.428C7.07812 15.2712 7.09493 15.0864 7.12853 14.8624C7.21813 14.3584 7.34692 13.7536 7.51492 13.0424C7.99092 11.116 9.22292 10.1528 11.2053 10.1528C11.7429 10.1528 12.2301 10.2424 12.6557 10.4272C13.0813 10.6008 13.4173 10.8696 13.6637 11.228C13.9101 11.5808 14.0333 12.0008 14.0333 12.488C14.0333 12.6336 14.0165 12.8184 13.9829 13.0424C13.8765 13.664 13.7533 14.2744 13.6021 14.8624C13.3557 15.82 12.9357 16.5424 12.3309 17.0184C11.7317 17.4888 10.9253 17.7184 9.91732 17.7184ZM10.0685 16.2064C10.4605 16.2064 10.7909 16.0888 11.0653 15.8592C11.3453 15.6296 11.5469 15.2768 11.6645 14.7952C11.8269 14.1344 11.9501 13.5632 12.0341 13.0704C12.0621 12.9248 12.0789 12.7736 12.0789 12.6168C12.0789 11.9784 11.7485 11.6592 11.0821 11.6592C10.6901 11.6592 10.3541 11.7768 10.0741 12.0064C9.79972 12.236 9.60372 12.5888 9.48612 13.0704C9.35732 13.5408 9.23412 14.112 9.10532 14.7952C9.07732 14.9352 9.06052 15.0808 9.06052 15.2376C9.05492 15.8872 9.39652 16.2064 10.0685 16.2064Z" fill="white"/>
		<path d="M14.5217 17.6177C14.4433 17.6177 14.3873 17.5953 14.3425 17.5449C14.3089 17.4889 14.2977 17.4273 14.3089 17.3545L15.7593 10.5225C15.7705 10.4441 15.8097 10.3825 15.8769 10.3321C15.9385 10.2817 16.0057 10.2593 16.0785 10.2593H18.8729C19.6513 10.2593 20.2729 10.4217 20.7433 10.7409C21.2193 11.0657 21.4601 11.5305 21.4601 12.1409C21.4601 12.3145 21.4377 12.4993 21.3985 12.6897C21.2249 13.4961 20.8721 14.0897 20.3345 14.4761C19.8081 14.8625 19.0857 15.0529 18.1673 15.0529H16.7505L16.2689 17.3545C16.2521 17.4329 16.2185 17.4945 16.1513 17.5449C16.0897 17.5953 16.0225 17.6177 15.9497 17.6177H14.5217ZM18.2401 13.6025C18.5369 13.6025 18.7889 13.5241 19.0073 13.3617C19.2313 13.1993 19.3769 12.9697 19.4497 12.6673C19.4721 12.5497 19.4833 12.4433 19.4833 12.3537C19.4833 12.1521 19.4217 11.9953 19.3041 11.8889C19.1865 11.7769 18.9793 11.7209 18.6937 11.7209H17.4337L17.0361 13.6025H18.2401Z" fill="white"/>
	</g>
	<defs>
		<clipPath id="clip0_3663_163222">
			<rect width="28" height="28" fill="white"/>
		</clipPath>
	</defs>
</svg>
