<svg width="20" height="20" viewBox="0 0 20 20" fill="none" xmlns="http://www.w3.org/2000/svg">
	<path fill-rule="evenodd" clip-rule="evenodd" d="M13.491 1.6665H6.50768C3.47435 1.6665 1.66602 3.47484 1.66602 6.50817V13.4832C1.66602 16.5248 3.47435 18.3332 6.50768 18.3332H13.4827C16.516 18.3332 18.3243 16.5248 18.3243 13.4915V6.50817C18.3327 3.47484 16.5243 1.6665 13.491 1.6665ZM9.3852 7.33162L7.99353 8.72328C7.75186 8.96495 7.35186 8.96495 7.1102 8.72328C6.86853 8.48162 6.86853 8.08162 7.1102 7.83995L9.56853 5.38162C9.62847 5.32168 9.69664 5.27372 9.77686 5.23995C9.92686 5.17328 10.1019 5.17328 10.2519 5.23995C10.3269 5.27328 10.3935 5.31495 10.4519 5.37328L12.9102 7.83162C13.1519 8.08162 13.1519 8.48162 12.9102 8.72328C12.7852 8.84828 12.6269 8.90662 12.4685 8.90662C12.3102 8.90662 12.1519 8.84828 12.0269 8.72328L10.6435 7.33995V14.1649C10.6435 14.5066 10.3519 14.7899 10.0102 14.7899C9.66853 14.7899 9.3852 14.5066 9.3852 14.1649V7.33162Z" fill="#979FBE"/>
</svg>
