<svg width="20" height="20" viewBox="0 0 20 20" fill="none" xmlns="http://www.w3.org/2000/svg">
	<path d="M13.491 1.6665H6.50768C3.47435 1.6665 1.66602 3.47484 1.66602 6.50817V13.4832C1.66602 16.5248 3.47435 18.3332 6.50768 18.3332H13.4827C16.516 18.3332 18.3243 16.5248 18.3243 13.4915V6.50817C18.3327 3.47484 16.5243 1.6665 13.491 1.6665ZM9.15768 14.1665C9.15768 14.2498 9.14102 14.3248 9.10768 14.4082C9.04102 14.5582 8.92435 14.6832 8.76602 14.7498C8.69102 14.7832 8.60768 14.7998 8.52435 14.7998C8.44102 14.7998 8.36601 14.7832 8.28268 14.7498C8.20768 14.7165 8.14102 14.6748 8.08268 14.6165L5.62435 12.1582C5.38268 11.9165 5.38268 11.5165 5.62435 11.2748C5.86602 11.0332 6.26602 11.0332 6.50768 11.2748L7.89935 12.6665V5.83317C7.89935 5.4915 8.18268 5.20817 8.52435 5.20817C8.86601 5.20817 9.15768 5.4915 9.15768 5.83317V14.1665ZM14.366 8.73317C14.241 8.85817 14.0827 8.9165 13.9243 8.9165C13.766 8.9165 13.6077 8.85817 13.4827 8.73317L12.091 7.3415V14.1665C12.091 14.5082 11.8077 14.7915 11.466 14.7915C11.1243 14.7915 10.841 14.5082 10.841 14.1665V5.83317C10.841 5.74984 10.8577 5.67484 10.891 5.5915C10.9577 5.4415 11.0743 5.3165 11.2327 5.24984C11.3827 5.18317 11.5577 5.18317 11.7077 5.24984C11.7827 5.28317 11.8493 5.32484 11.9077 5.38317L14.366 7.8415C14.6077 8.0915 14.6077 8.4915 14.366 8.73317Z" fill="#979FBE"/>
</svg>
