<svg width="20" height="20" viewBox="0 0 20 20" fill="none" xmlns="http://www.w3.org/2000/svg">
	<path fill-rule="evenodd" clip-rule="evenodd" d="M13.491 1.6665H6.50768C3.47435 1.6665 1.66602 3.47484 1.66602 6.50817V13.4832C1.66602 16.5248 3.47435 18.3332 6.50768 18.3332H13.4827C16.516 18.3332 18.3243 16.5248 18.3243 13.4915V6.50817C18.3327 3.47484 16.5243 1.6665 13.491 1.6665ZM9.3852 12.6483L7.99353 11.2566C7.75186 11.0149 7.35186 11.0149 7.1102 11.2566C6.86853 11.4983 6.86853 11.8983 7.1102 12.1399L9.56853 14.5983C9.62847 14.6582 9.69664 14.7062 9.77686 14.7399C9.92686 14.8066 10.1019 14.8066 10.2519 14.7399C10.3269 14.7066 10.3935 14.6649 10.4519 14.6066L12.9102 12.1483C13.1519 11.8983 13.1519 11.4983 12.9102 11.2566C12.7852 11.1316 12.6269 11.0733 12.4685 11.0733C12.3102 11.0733 12.1519 11.1316 12.0269 11.2566L10.6435 12.6399V5.81495C10.6435 5.47328 10.3519 5.18995 10.0102 5.18995C9.66853 5.18995 9.3852 5.47328 9.3852 5.81495V12.6483Z" fill="#979FBE"/>
</svg>
