<svg width="18" height="18" viewBox="0 0 18 18" fill="none" xmlns="http://www.w3.org/2000/svg">
<path d="M12.491 0.666748H5.50768C2.47435 0.666748 0.666016 2.47508 0.666016 5.50841V12.4834C0.666016 15.5251 2.47435 17.3334 5.50768 17.3334H12.4827C15.516 17.3334 17.3243 15.5251 17.3243 12.4917V5.50841C17.3327 2.47508 15.5243 0.666748 12.491 0.666748ZM8.15768 13.1667C8.15768 13.2501 8.14102 13.3251 8.10768 13.4084C8.04102 13.5584 7.92435 13.6834 7.76602 13.7501C7.69102 13.7834 7.60768 13.8001 7.52435 13.8001C7.44102 13.8001 7.36601 13.7834 7.28268 13.7501C7.20768 13.7167 7.14102 13.6751 7.08268 13.6167L4.62435 11.1584C4.38268 10.9167 4.38268 10.5167 4.62435 10.2751C4.86602 10.0334 5.26602 10.0334 5.50768 10.2751L6.89935 11.6667V4.83342C6.89935 4.49175 7.18268 4.20841 7.52435 4.20841C7.86601 4.20841 8.15768 4.49175 8.15768 4.83342V13.1667ZM13.366 7.73341C13.241 7.85841 13.0827 7.91675 12.9243 7.91675C12.766 7.91675 12.6077 7.85841 12.4827 7.73341L11.091 6.34175V13.1667C11.091 13.5084 10.8077 13.7917 10.466 13.7917C10.1243 13.7917 9.84102 13.5084 9.84102 13.1667V4.83342C9.84102 4.75008 9.85768 4.67508 9.89102 4.59175C9.95768 4.44175 10.0743 4.31675 10.2327 4.25008C10.3827 4.18341 10.5577 4.18341 10.7077 4.25008C10.7827 4.28342 10.8493 4.32508 10.9077 4.38341L13.366 6.84175C13.6077 7.09175 13.6077 7.49175 13.366 7.73341Z" fill="#7F8395"/>
</svg>
