<svg width="163" height="70" viewBox="0 0 163 70" fill="none" xmlns="http://www.w3.org/2000/svg">
<path d="M132.799 46.6755C129.542 46.6755 127.61 44.0352 128.482 40.7783L135.503 14.5718C138.76 14.5718 140.693 17.2121 139.821 20.4689L132.799 46.6738V46.6755Z" fill="white"/>
<path d="M41.8393 23.1765C37.537 23.1765 33.1572 25.4758 30.1707 28.9135C28.631 30.6875 27.4615 32.7646 26.8656 34.9846L21.418 55.3181C24.6714 55.3181 28.0161 52.6795 28.8893 49.4261L30.0191 45.2065C31.5279 46.2433 33.4569 46.8237 35.6907 46.791C42.2061 46.6945 48.9059 41.271 50.5352 34.7814C52.149 28.352 48.291 23.1748 41.8393 23.1748V23.1765ZM37.4767 40.9369C34.2129 41.1436 32.129 38.8133 32.5526 35.7562C32.5871 35.5048 32.6388 35.2464 32.7094 34.9846C32.78 34.7228 32.8661 34.4645 32.966 34.213C34.1303 31.2834 37.2408 29.0186 40.2737 29.0186C43.6288 29.0186 45.5939 31.7898 44.5881 35.1672C43.6804 38.2157 40.5734 40.7388 37.4767 40.9352V40.9369Z" fill="white"/>
<path d="M127.189 29.0235C126.016 25.498 122.735 23.1694 118.26 23.2917C111.936 23.4639 105.457 28.6257 103.676 34.9052C101.802 41.5119 105.684 46.9027 112.268 46.9027C114.425 46.9027 116.602 46.3258 118.61 45.3165L118.505 45.7057C117.9 47.9654 115.852 49.5361 113.514 49.5361H111.24C107.987 49.5361 104.642 52.1747 103.769 55.4281H116.624C119.478 55.4281 122.411 53.1151 123.176 50.2612L127.24 35.0946C127.834 32.8746 127.779 30.7975 127.189 29.0235ZM113.834 41.059C110.479 41.059 108.514 38.2895 109.52 34.9121C110.427 31.8636 113.534 29.3387 116.629 29.1424C119.895 28.934 121.979 31.2677 121.555 34.323C121.521 34.5745 121.469 34.8328 121.398 35.0946C121.328 35.3564 121.241 35.6148 121.142 35.8662C119.977 38.7959 116.867 41.059 113.834 41.059Z" fill="white"/>
<path d="M13.3823 46.7927H0C0.862873 43.572 4.17486 40.9593 7.39556 40.9593H14.9444C15.344 40.9593 15.7263 40.8164 16.088 40.5305C16.4497 40.2445 16.6857 39.9018 16.7924 39.5005C16.8992 39.0992 16.8338 38.815 16.5823 38.6859C16.3309 38.5567 16.0053 38.493 15.604 38.493H9.51399C8.49956 38.493 7.60052 38.3001 6.81687 37.9143C6.03322 37.5285 5.40286 37.0032 4.92234 36.3384C4.44354 35.6736 4.1318 34.8985 3.99057 34.0115C3.84934 33.1246 3.91479 32.1738 4.18691 31.1594C4.45904 30.145 4.90339 29.1943 5.51998 28.3073C6.13656 27.4203 6.86165 26.6487 7.69524 25.9908C8.52884 25.3329 9.43993 24.8145 10.4285 24.4355C11.4171 24.0566 12.4178 23.8672 13.4322 23.8672H26.8421C25.9792 27.0879 22.6672 29.7006 19.4465 29.7006H11.8701C11.4688 29.7006 11.0882 29.8436 10.7265 30.1295C10.3631 30.4154 10.1289 30.7581 10.0221 31.1594C9.91529 31.5607 9.95835 31.9276 10.1667 32.2203C10.3734 32.5131 10.6783 32.6595 11.0778 32.6595H17.1679C18.1686 32.6595 19.0676 32.8283 19.8633 33.1642C20.659 33.5 21.3066 33.9685 21.8026 34.5696C22.2986 35.1707 22.6276 35.8923 22.7878 36.7362C22.9479 37.5801 22.8928 38.5016 22.6259 39.5022C22.3589 40.5029 21.9077 41.4639 21.2859 42.344C20.6642 43.2224 19.9356 43.9957 19.1003 44.6605C18.265 45.3253 17.3522 45.8472 16.3653 46.2261C15.3767 46.605 14.3829 46.7945 13.3823 46.7945V46.7927Z" fill="white"/>
<path d="M101.383 33.5687L97.84 46.7925C94.5866 46.7925 92.6542 44.154 93.5274 40.9005L95.7027 32.7816C96.321 30.4737 95.0568 28.5137 92.7782 28.4156C92.7041 28.4121 92.6301 28.4104 92.5543 28.4104C92.4785 28.4104 92.4027 28.4104 92.3287 28.4156C89.9967 28.5137 87.6819 30.4737 87.0636 32.7816L84.8883 40.9005C84.0169 44.154 80.6721 46.7925 77.417 46.7925L80.9598 33.5687C81.473 31.65 82.4857 29.8537 83.8188 28.3191C85.3293 26.5796 87.2513 25.1776 89.3319 24.3148C90.8079 23.6999 92.3648 23.3589 93.908 23.3589C95.4512 23.3589 96.9479 23.7343 98.1259 24.4026C101.066 26.0629 102.463 29.5437 101.385 33.5687H101.383Z" fill="white"/>
<path d="M162.103 23.5L154.933 50.2611C154.168 53.115 151.235 55.428 148.382 55.428H134.942C135.378 53.8004 136.432 52.3279 137.784 51.2618C139.136 50.1957 140.784 49.536 142.412 49.536H145.107C147.284 49.536 149.191 48.0721 149.756 45.9691L149.761 45.9502C149.623 46.0036 147.689 46.7545 145.602 46.7545C145.571 46.7545 145.629 46.7545 145.602 46.7545C140.617 46.7545 137.373 43.1945 137.715 38.4789C137.777 37.8054 137.903 37.0976 138.094 36.3587C138.106 36.3053 138.122 36.2502 138.136 36.1951L141.537 23.5C143.149 23.5 144.431 24.1528 145.204 25.2085C145.653 25.8234 145.931 26.5726 146 27.4096C146.048 28.0124 145.989 28.6583 145.808 29.3334L143.969 36.1951C143.75 37.0097 143.68 37.721 143.752 38.329C143.824 38.937 144.007 39.4433 144.298 39.8515C144.589 40.258 144.975 40.5628 145.457 40.7626C145.939 40.9624 146.489 41.0623 147.104 41.0623C147.718 41.0623 148.309 40.9228 148.919 40.6438C149.53 40.3665 150.095 39.9979 150.62 39.5398C151.142 39.0834 151.597 38.565 151.981 37.9863C152.27 37.5505 152.496 37.1062 152.66 36.6532C152.715 36.5017 152.761 36.3484 152.803 36.1951L154.625 29.3972C154.811 28.7031 155.111 28.0365 155.496 27.4182C156.921 25.1345 159.54 23.5 162.103 23.5Z" fill="white"/>
<circle cx="65.4669" cy="35.004" r="11.8292" fill="#FFFF33"/>
</svg>
