<svg width="20" height="20" viewBox="0 0 20 20" fill="none" xmlns="http://www.w3.org/2000/svg">
<path d="M18.3333 7.08317C18.3333 10.0748 15.9083 12.4998 12.9167 12.4998C12.775 12.4998 12.625 12.4915 12.4833 12.4832C12.275 9.84151 10.1583 7.72483 7.51666 7.51649C7.50832 7.37483 7.5 7.22484 7.5 7.08317C7.5 4.0915 9.925 1.6665 12.9167 1.6665C15.9083 1.6665 18.3333 4.0915 18.3333 7.08317Z" stroke="white" stroke-width="1.5" stroke-linecap="round" stroke-linejoin="round"/>
<path d="M12.4993 12.9167C12.4993 15.9083 10.0743 18.3333 7.08268 18.3333C4.09102 18.3333 1.66602 15.9083 1.66602 12.9167C1.66602 9.925 4.09102 7.5 7.08268 7.5C7.22435 7.5 7.37434 7.50832 7.51601 7.51666C10.1577 7.72499 12.2744 9.84168 12.4827 12.4833C12.491 12.625 12.4993 12.775 12.4993 12.9167Z" stroke="white" stroke-width="1.5" stroke-linecap="round" stroke-linejoin="round"/>
<path d="M4.65768 1.6665H2.49935C2.04102 1.6665 1.66602 2.0415 1.66602 2.49984V4.65817C1.66602 5.39983 2.56601 5.77483 3.09101 5.24983L5.24934 3.0915C5.76601 2.5665 5.39935 1.6665 4.65768 1.6665Z" stroke="white" stroke-width="1.5" stroke-linecap="round" stroke-linejoin="round"/>
<path d="M15.3408 18.3332H17.4991C17.9574 18.3332 18.3324 17.9582 18.3324 17.4999V15.3416C18.3324 14.5999 17.4325 14.2249 16.9075 14.7499L14.7491 16.9082C14.2325 17.4332 14.5991 18.3332 15.3408 18.3332Z" stroke="white" stroke-width="1.5" stroke-linecap="round" stroke-linejoin="round"/>
</svg>
